<svg width="24" viewBox="0 0 35 18" fill="none" xmlns="http://www.w3.org/2000/svg" role="img"
	aria-label="Times Splatted" class="relative top-0">
	<path
		d="M15.666 5.3c-1.252-.43-2.535.548-3.956.993-.905.284-1.096-.293-.675-.814.655-.82 2.081-1.326 2.768-2.125 1.11-1.294.773-2.952-1.401-3.069-.946-.051-2.218.418-2.729 1.208C8.666 3.048 9.2 3.606 8.627 4.887c-.206.46-.692 1.037-1.318.702-.343-.181-.343-.587-.052-.905.998-1.086 1.607-3.05-.733-3.079-1.032-.014-2.35.864-2.759 1.903-.332.846-.222 1.917-.073 2.721.296 1.592.734 3.015-2.298 4.184-2.094.807-1.639 1.572.107 1.013 2.66-.822 3.94.097 4.578 1.344.67 1.311.706 2.446 2.08 3.292.55.335 1.436.62 2.673.058 1.372-.623 1.13-1.88.49-2.48-.641-.598-2.346-1.302-1.86-1.782.353-.45 1.588-.46 2.664.333.616.452 1.895.978 2.868.4 1.14-.691 1.13-1.77.511-2.564-.489-.64-1.64-.961-2.668-.77-.777.144-1.755.337-1.79-.277-.02-.337.475-.594.878-.667 1.306-.245 2.717.62 3.82.03 1.53-.81 1.188-2.608-.079-3.043Z"
		fill="{% splatNetCssColor color %}"></path>
	<path
		d="M27.893 16.267c-.678-.186-.883-.883-.348-1.379.097-.088.2-.17.308-.245l-2.51-4.088-5.353-.76c-.262.682-.978.753-1.411.193-.372-.49-.079-.978-.568-2.184-1.92.707-2.017 2.834-.697 3.912a3.304 3.304 0 0 0 2.825.688c-.536.298-1.247.865-1.323 1.56 1.122.846 2.237 1.489 3.714.215l.044-.066-.044.066c-.63 1.844.384 2.638 1.59 3.362.613-.33.875-1.203.95-1.81a3.29 3.29 0 0 0 1.688 2.36c1.502.817 3.438-.07 3.375-2.115-1.304-.002-1.649.455-2.24.291Z"
		fill="#fff"></path>
	<path
		d="M30.932 1.718C26.944-.906 22.262-.534 20.623 2.9c-.92 1.93-.734 3.297-.572 4.473l3.653.508-1.66-2.702L23.87 3.47l2.934 4.856 5.38.748-.944 2.328-2.826-.408 1.711 2.848a6.695 6.695 0 0 0 3.57-2.115c2.582-2.814 1.162-7.294-2.763-10.008Z"
		fill="#fff"></path>
	<path
		d="M27.01 6.39c1.792 0 1.839-2.295 1.687-3.792-.132-1.276.49-1.584.915-1.628-3.624-1.744-7.475-1.137-8.957 1.873.655.19.853.863 2.107.978 1.869.166 1.382-1.25 2.101-1.301.719-.051-.42 3.868 2.147 3.87Z"
		fill="{% splatNetCssColor color %}"></path>
</svg>